#N canvas 757 351 736 620 12;
#N canvas 1288 508 781 654 16x 0;
#X obj 69 345 *~ 0.064;
#X obj 69 368 rpole~ 0.93538;
#X obj 69 391 *~ 0.00431;
#X obj 69 414 cpole~ 0.96559 0.05592;
#X obj 69 440 cpole~ 0.96559 -0.05592;
#X obj 69 463 *~ 0.125;
#X obj 69 486 rzero~ -1;
#X obj 69 509 rzero~ -1;
#X obj 69 532 rzero~ -1;
#X obj 63 97 phasor~;
#X obj 69 566 outlet~;
#X obj 86 151 wrap~;
#X obj 86 127 -~;
#X obj 86 175 *~;
#X obj 63 204 +~;
#X obj 271 156 phasor~;
#X obj 294 210 wrap~;
#X obj 294 186 -~;
#X obj 294 234 *~;
#X obj 271 263 +~;
#X obj 64 271 +~;
#X obj 457 31 block~ 1024 1 16;
#X obj 62 29 inlet;
#X obj 250 34 r osc-params;
#X obj 250 57 unpack 0 0 0 0 0 0;
#X obj 272 100 *~;
#X obj 272 128 +~;
#X msg 341 338 \; osc-params 0.5 -0.5 0.5 0.5 1 0.5;
#X obj 341 312 loadbang;
#X connect 0 0 1 0;
#X connect 1 0 2 0;
#X connect 2 0 3 0;
#X connect 3 0 4 0;
#X connect 3 1 4 1;
#X connect 4 0 5 0;
#X connect 5 0 6 0;
#X connect 6 0 7 0;
#X connect 7 0 8 0;
#X connect 8 0 10 0;
#X connect 9 0 12 0;
#X connect 9 0 14 0;
#X connect 11 0 13 0;
#X connect 12 0 11 0;
#X connect 13 0 14 1;
#X connect 14 0 20 0;
#X connect 15 0 17 0;
#X connect 15 0 19 0;
#X connect 16 0 18 0;
#X connect 17 0 16 0;
#X connect 18 0 19 1;
#X connect 19 0 20 1;
#X connect 20 0 0 0;
#X connect 22 0 9 0;
#X connect 22 0 25 0;
#X connect 23 0 24 0;
#X connect 24 0 12 1;
#X connect 24 1 13 1;
#X connect 24 2 17 1;
#X connect 24 3 18 1;
#X connect 24 4 25 1;
#X connect 24 5 26 1;
#X connect 25 0 26 0;
#X connect 26 0 15 0;
#X connect 28 0 27 0;
#X restore 195 210 pd 16x;
#X obj 182 326 *~;
#X obj 194 247 vcf~ 3;
#X obj 226 326 *~;
#X obj 65 74 / 240;
#X obj 192 39 inlet;
#X obj 67 36 inlet;
#X text 127 40 X: pan;
#X text 244 40 Y: freqency;
#X obj 385 46 inlet;
#X text 432 48 Z: filter freq;
#X obj 376 78 scale 0 1500 0 4000;
#X msg 123 76 120;
#X floatatom 361 221 5 0 0 0 - - -;
#X obj 177 432 outlet~;
#X obj 248 433 outlet~;
#X floatatom 305 221 5 0 0 0 - - -;
#X text 306 242 pan;
#X text 348 242 osc freq;
#X floatatom 422 221 5 0 0 0 - - -;
#X text 416 242 filter freq;
#X obj 191 67 scale 0 130 40 2000;
#X obj 51 269 cos~;
#X obj 124 269 cos~;
#X obj 64 114 * 0.25;
#X obj 315 142 line~;
#X msg 315 118 \$1 10;
#X obj 61 168 line~;
#X msg 61 144 \$1 10;
#X obj 124 238 +~ 0.75;
#X obj 245 372 *~ 0.5;
#X obj 187 371 *~ 0.5;
#X text 308 369 some unscientific attenuation to avoid gain-stage clipping
;
#X connect 0 0 2 0;
#X connect 1 0 31 0;
#X connect 2 1 3 0;
#X connect 2 1 1 0;
#X connect 3 0 30 0;
#X connect 4 0 16 0;
#X connect 4 0 24 0;
#X connect 5 0 21 0;
#X connect 6 0 4 0;
#X connect 9 0 11 0;
#X connect 11 0 19 0;
#X connect 11 0 26 0;
#X connect 12 0 4 0;
#X connect 21 0 13 0;
#X connect 21 0 0 0;
#X connect 22 0 1 1;
#X connect 23 0 3 1;
#X connect 24 0 28 0;
#X connect 25 0 2 1;
#X connect 26 0 25 0;
#X connect 27 0 22 0;
#X connect 27 0 29 0;
#X connect 28 0 27 0;
#X connect 29 0 23 0;
#X connect 30 0 15 0;
#X connect 31 0 14 0;
#X coords 0 -1 1 1 200 60 1 300 200;
