#N canvas 6 23 1202 830 12;
#X obj 88 108 sensel;
#X msg 84 28 discover;
#X msg 84 49 disconnect;
#X msg 84 70 identify;
#X msg 175 49 connect SM01172411629;
#X msg 175 28 connect SM01173912638;
#X obj 341 232 basicvoice;
#X obj 684 726 output~;
#X obj 86 208 unpack 0 0 0 0 0 0 0 0 0 0 0 0 0 0 0 0 0 0 0;
#X obj 446 130 route 0 1 2 3 4 5 6 7 8 9 10 12 13 14 15;
#X obj 339 325 basicvoice;
#X obj 84 301 unpack 0 0 0 0 0 0 0 0 0 0 0 0 0 0 0 0 0 0 0;
#X obj 336 416 basicvoice;
#X obj 81 392 unpack 0 0 0 0 0 0 0 0 0 0 0 0 0 0 0 0 0 0 0;
#X obj 338 514 basicvoice;
#X obj 83 490 unpack 0 0 0 0 0 0 0 0 0 0 0 0 0 0 0 0 0 0 0;
#X obj 338 606 basicvoice;
#X obj 83 582 unpack 0 0 0 0 0 0 0 0 0 0 0 0 0 0 0 0 0 0 0;
#X obj 831 242 basicvoice;
#X obj 576 218 unpack 0 0 0 0 0 0 0 0 0 0 0 0 0 0 0 0 0 0 0;
#X obj 829 335 basicvoice;
#X obj 574 311 unpack 0 0 0 0 0 0 0 0 0 0 0 0 0 0 0 0 0 0 0;
#X obj 826 426 basicvoice;
#X obj 571 402 unpack 0 0 0 0 0 0 0 0 0 0 0 0 0 0 0 0 0 0 0;
#X obj 828 524 basicvoice;
#X obj 573 500 unpack 0 0 0 0 0 0 0 0 0 0 0 0 0 0 0 0 0 0 0;
#X obj 828 616 basicvoice;
#X obj 573 592 unpack 0 0 0 0 0 0 0 0 0 0 0 0 0 0 0 0 0 0 0;
#X obj 92 137 route contacts;
#X floatatom 90 167 5 0 0 0 - - -;
#X text 466 52 patch by Peter Nyboer peter@sensel.com;
#X connect 0 0 9 0;
#X connect 0 0 28 0;
#X connect 1 0 0 0;
#X connect 2 0 0 0;
#X connect 3 0 0 0;
#X connect 4 0 0 0;
#X connect 5 0 0 0;
#X connect 6 0 7 0;
#X connect 6 1 7 1;
#X connect 8 15 6 0;
#X connect 8 16 6 1;
#X connect 8 17 6 2;
#X connect 9 0 8 0;
#X connect 9 1 11 0;
#X connect 9 2 13 0;
#X connect 9 3 15 0;
#X connect 9 4 17 0;
#X connect 9 5 19 0;
#X connect 9 6 21 0;
#X connect 9 7 23 0;
#X connect 9 8 25 0;
#X connect 9 9 27 0;
#X connect 10 0 7 0;
#X connect 10 1 7 1;
#X connect 11 15 10 0;
#X connect 11 16 10 1;
#X connect 11 17 10 2;
#X connect 12 0 7 0;
#X connect 12 1 7 1;
#X connect 13 15 12 0;
#X connect 13 16 12 1;
#X connect 13 17 12 2;
#X connect 14 0 7 0;
#X connect 14 1 7 1;
#X connect 15 15 14 0;
#X connect 15 16 14 1;
#X connect 15 17 14 2;
#X connect 16 0 7 0;
#X connect 16 1 7 1;
#X connect 17 15 16 0;
#X connect 17 16 16 1;
#X connect 17 17 16 2;
#X connect 18 0 7 0;
#X connect 18 1 7 1;
#X connect 19 15 18 0;
#X connect 19 16 18 1;
#X connect 19 17 18 2;
#X connect 20 0 7 0;
#X connect 20 1 7 1;
#X connect 21 15 20 0;
#X connect 21 16 20 1;
#X connect 21 17 20 2;
#X connect 22 0 7 0;
#X connect 22 1 7 1;
#X connect 23 15 22 0;
#X connect 23 16 22 1;
#X connect 23 17 22 2;
#X connect 24 0 7 0;
#X connect 24 1 7 1;
#X connect 25 15 24 0;
#X connect 25 16 24 1;
#X connect 25 17 24 2;
#X connect 26 0 7 0;
#X connect 26 1 7 1;
#X connect 27 15 26 0;
#X connect 27 16 26 1;
#X connect 27 17 26 2;
#X connect 28 0 29 0;
