#N canvas 780 351 792 538 12;
#N canvas 1288 508 781 654 16x 0;
#X obj 69 345 *~ 0.064;
#X obj 69 368 rpole~ 0.93538;
#X obj 69 391 *~ 0.00431;
#X obj 69 414 cpole~ 0.96559 0.05592;
#X obj 69 440 cpole~ 0.96559 -0.05592;
#X obj 69 463 *~ 0.125;
#X obj 69 486 rzero~ -1;
#X obj 69 509 rzero~ -1;
#X obj 69 532 rzero~ -1;
#X obj 63 97 phasor~;
#X obj 69 566 outlet~;
#X obj 86 151 wrap~;
#X obj 86 127 -~;
#X obj 86 175 *~;
#X obj 63 204 +~;
#X obj 271 156 phasor~;
#X obj 294 210 wrap~;
#X obj 294 186 -~;
#X obj 294 234 *~;
#X obj 271 263 +~;
#X obj 64 271 +~;
#X obj 457 31 block~ 1024 1 16;
#X obj 62 29 inlet;
#X obj 250 34 r osc-params;
#X obj 250 57 unpack 0 0 0 0 0 0;
#X obj 272 100 *~;
#X obj 272 128 +~;
#X msg 341 338 \; osc-params 0.5 -0.5 0.5 0.5 1 0.5;
#X obj 341 312 loadbang;
#X connect 0 0 1 0;
#X connect 1 0 2 0;
#X connect 2 0 3 0;
#X connect 3 0 4 0;
#X connect 3 1 4 1;
#X connect 4 0 5 0;
#X connect 5 0 6 0;
#X connect 6 0 7 0;
#X connect 7 0 8 0;
#X connect 8 0 10 0;
#X connect 9 0 12 0;
#X connect 9 0 14 0;
#X connect 11 0 13 0;
#X connect 12 0 11 0;
#X connect 13 0 14 1;
#X connect 14 0 20 0;
#X connect 15 0 17 0;
#X connect 15 0 19 0;
#X connect 16 0 18 0;
#X connect 17 0 16 0;
#X connect 18 0 19 1;
#X connect 19 0 20 1;
#X connect 20 0 0 0;
#X connect 22 0 9 0;
#X connect 22 0 25 0;
#X connect 23 0 24 0;
#X connect 24 0 12 1;
#X connect 24 1 13 1;
#X connect 24 2 17 1;
#X connect 24 3 18 1;
#X connect 24 4 25 1;
#X connect 24 5 26 1;
#X connect 25 0 26 0;
#X connect 26 0 15 0;
#X connect 28 0 27 0;
#X restore 185 243 pd 16x;
#X obj 172 359 *~;
#X obj 184 280 vcf~ 3;
#X obj 216 359 *~;
#X obj 55 107 / 240;
#X obj 67 36 inlet;
#X text 176 41 X: pan;
#X text 244 40 Y: freqency;
#X text 345 41 Z: filter freq;
#X obj 376 107 scale 0 1500 0 4000;
#X floatatom 365 222 5 0 0 0 - - -;
#X obj 167 465 outlet~;
#X obj 238 466 outlet~;
#X floatatom 309 222 5 0 0 0 - - -;
#X floatatom 431 222 5 0 0 0 - - -;
#X obj 41 302 cos~;
#X obj 114 302 cos~;
#X obj 54 147 * 0.25;
#X obj 305 175 line~;
#X msg 305 151 \$1 10;
#X obj 51 201 line~;
#X msg 51 177 \$1 10;
#X obj 114 271 +~ 0.75;
#X text 298 402 some unscientific attenuation to avoid gain-stage clipping
;
#X text 306 243 X:pan;
#X text 362 243 Y:pitch;
#X obj 190 107 scale 0 130 20 2000;
#X text 475 43 Area: gain;
#X obj 540 106 scale 80 400 0 0.5;
#X obj 541 140 clip 0 0.5;
#X floatatom 511 222 5 0 0 0 - - -;
#X text 508 243 A:gain;
#X text 428 243 Z:filt frq;
#X obj 69 69 unpack 0 0 0 0 0 0 0 0 0 0 0 0 0 0 0 0 0 0 0;
#X obj 587 243 line~;
#X msg 587 219 \$1 10;
#X obj 177 404 *~;
#X obj 235 405 *~;
#X connect 0 0 2 0;
#X connect 1 0 36 0;
#X connect 2 1 3 0;
#X connect 2 1 1 0;
#X connect 3 0 37 0;
#X connect 4 0 13 0;
#X connect 4 0 17 0;
#X connect 5 0 33 0;
#X connect 9 0 14 0;
#X connect 9 0 19 0;
#X connect 15 0 1 1;
#X connect 16 0 3 1;
#X connect 17 0 21 0;
#X connect 18 0 2 1;
#X connect 19 0 18 0;
#X connect 20 0 15 0;
#X connect 20 0 22 0;
#X connect 21 0 20 0;
#X connect 22 0 16 0;
#X connect 26 0 10 0;
#X connect 26 0 0 0;
#X connect 28 0 29 0;
#X connect 29 0 30 0;
#X connect 29 0 35 0;
#X connect 33 15 4 0;
#X connect 33 16 26 0;
#X connect 33 17 9 0;
#X connect 33 18 28 0;
#X connect 34 0 36 1;
#X connect 34 0 37 1;
#X connect 35 0 34 0;
#X connect 36 0 11 0;
#X connect 37 0 12 0;
#X coords 0 -1 1 1 260 60 1 300 200;
