#N canvas 474 23 1072 749 12;
#X obj 88 108 sensel;
#X msg 84 28 discover;
#X msg 84 49 disconnect;
#X msg 84 70 identify;
#X obj 81 210 basicvoice;
#X obj 92 137 route contacts;
#X floatatom 90 167 5 0 0 0 - - -;
#X text 707 62 patch by Peter Nyboer peter@sensel.com;
#X text 709 89 Each contact controls an oscillator.;
#X obj 79 287 basicvoice;
#X obj 78 357 basicvoice;
#X obj 78 431 basicvoice;
#X obj 76 508 basicvoice;
#X obj 396 216 basicvoice;
#X obj 394 293 basicvoice;
#X obj 393 363 basicvoice;
#X obj 393 437 basicvoice;
#X obj 391 514 basicvoice;
#X obj 404 138 route 5 6 7 8 9 10 12 13 14 15;
#X obj 224 132 route 0 1 2 3 4;
#X obj 688 217 basicvoice;
#X obj 686 294 basicvoice;
#X obj 685 364 basicvoice;
#X obj 685 438 basicvoice;
#X obj 683 515 basicvoice;
#X obj 696 144 route 10 11 12 13 14 15;
#X obj 469 648 output2~;
#X connect 0 0 5 0;
#X connect 0 0 19 0;
#X connect 1 0 0 0;
#X connect 2 0 0 0;
#X connect 3 0 0 0;
#X connect 4 0 26 0;
#X connect 4 1 26 1;
#X connect 5 0 6 0;
#X connect 9 0 26 0;
#X connect 9 1 26 1;
#X connect 10 0 26 0;
#X connect 10 1 26 1;
#X connect 11 0 26 0;
#X connect 11 1 26 1;
#X connect 12 0 26 0;
#X connect 13 0 26 0;
#X connect 13 1 26 1;
#X connect 14 0 26 0;
#X connect 14 1 26 1;
#X connect 15 0 26 0;
#X connect 15 1 26 1;
#X connect 16 0 26 0;
#X connect 16 1 26 1;
#X connect 17 0 26 0;
#X connect 17 1 26 1;
#X connect 18 0 13 0;
#X connect 18 1 14 0;
#X connect 18 2 15 0;
#X connect 18 3 16 0;
#X connect 18 4 17 0;
#X connect 18 10 25 0;
#X connect 19 0 4 0;
#X connect 19 1 9 0;
#X connect 19 2 10 0;
#X connect 19 3 11 0;
#X connect 19 4 12 0;
#X connect 19 5 18 0;
#X connect 20 0 26 0;
#X connect 20 1 26 1;
#X connect 21 0 26 0;
#X connect 21 1 26 1;
#X connect 22 0 26 0;
#X connect 22 1 26 1;
#X connect 23 0 26 0;
#X connect 23 1 26 1;
#X connect 24 0 26 0;
#X connect 24 1 26 1;
#X connect 25 0 20 0;
#X connect 25 1 21 0;
#X connect 25 2 22 0;
#X connect 25 3 23 0;
#X connect 25 4 24 0;
