#N canvas 643 219 347 430 10;
#X obj 228 118 inlet;
#X obj 199 95 loadbang;
#X obj 126 353 s led;
#X obj 199 118 \$1;
#X obj 171 162 pack 0 0 0;
#X obj 228 140 / 22;
#X obj 114 27 loadbang;
#X obj 114 118 metro 100;
#X obj 171 185 t l l;
#X msg 198 206 \$3;
#X obj 198 227 change;
#X obj 198 248 t 1;
#X obj 126 276 gate 1 0;
#X msg 126 331 led \$2 \$3;
#X obj 126 301 t l 0;
#X obj 114 49 tgl 15 0 empty empty empty 17 7 0 10 -262144 -1 -1 1
1;
#X obj 138 49 loadbang;
#X obj 138 71 \$2;
#X obj 138 93 sel 0;
#X text 16 360 ARGUMENTS:;
#X text 16 377 1: LED id;
#X text 16 393 2: output rate (default 100ms);
#X connect 0 0 5 0;
#X connect 1 0 3 0;
#X connect 3 0 4 1;
#X connect 4 0 8 0;
#X connect 5 0 4 2;
#X connect 6 0 15 0;
#X connect 7 0 4 0;
#X connect 8 0 12 1;
#X connect 8 1 9 0;
#X connect 9 0 10 0;
#X connect 10 0 11 0;
#X connect 11 0 12 0;
#X connect 12 0 14 0;
#X connect 13 0 2 0;
#X connect 14 0 13 0;
#X connect 14 1 12 0;
#X connect 15 0 7 0;
#X connect 16 0 17 0;
#X connect 17 0 18 0;
#X connect 18 1 7 1;
