#N canvas 9 24 717 600 12;
#X obj 194 469 *~;
#X obj 206 390 vcf~ 3;
#X obj 238 469 *~;
#X obj 77 217 / 240;
#X obj 267 139 inlet;
#X obj 79 179 inlet;
#X text 71 152 X: pan;
#X text 251 116 Y: freqency;
#X obj 423 204 inlet;
#X text 413 177 Z: filter freq;
#X obj 414 236 scale 0 1500 0 4000;
#X msg 135 219 120;
#X obj 171 523 outlet~;
#X obj 242 524 outlet~;
#X obj 206 227 scale 0 130 40 2000;
#X obj 63 412 cos~;
#X obj 136 412 cos~;
#X obj 76 257 * 0.25;
#X obj 414 306 line~;
#X msg 414 282 \$1 10;
#X obj 73 311 line~;
#X msg 73 287 \$1 10;
#X obj 136 381 +~ 0.75;
#X obj 206 352 phasor~;
#X obj 207 323 line~;
#X msg 207 256 \$1 10;
#X obj 94 8 loadbang;
#N canvas 344 198 450 300 switch 0;
#X obj 46 43 inlet;
#X obj 155 63 inlet;
#X obj 63 205 outlet;
#X obj 154 209 outlet;
#X obj 60 126 == 1;
#X obj 49 90 t f f;
#X obj 104 127 == 2;
#X obj 59 161 spigot;
#X obj 158 157 spigot;
#X connect 0 0 5 0;
#X connect 1 0 7 0;
#X connect 1 0 8 0;
#X connect 4 0 7 1;
#X connect 5 0 4 0;
#X connect 5 1 6 0;
#X connect 6 0 8 1;
#X connect 7 0 2 0;
#X connect 8 0 3 0;
#X restore 206 196 pd switch;
#X obj 94 64 == 1;
#X obj 94 92 + 1;
#X obj 72 8 tgl 15 0 empty empty empty 17 7 0 10 -262144 -1 -1 0 1
;
#X obj 94 36 f \$1;
#X text 136 36 1 as first arg means quantize;
#X obj 364 8 loadbang;
#X text 406 36 sec arg choose scale;
#X obj 364 36 f \$2;
#X obj 370 70 loadbang;
#X text 390 118 third arg choose glide time;
#X obj 370 98 f \$3;
#N canvas 0 23 581 387 quantize 0;
#X obj 125 181 mtof;
#X obj 123 152 f2scale locrian 24;
#X obj 124 217 pack 0 10;
#X obj 108 28 inlet;
#X obj 181 108 inlet;
#X obj 123 249 outlet;
#X obj 184 180 outlet;
#X obj 274 153 inlet;
#X text 56 306 https://forum.pdpatchrepo.info/topic/11775/creating-a-quantizer/6
;
#X text 57 281 f2scale from user "weightless";
#X obj 123 65 scale 0 130 8 43;
#X text 268 38 quantizes pitch to scales;
#X connect 0 0 2 0;
#X connect 1 0 0 0;
#X connect 1 1 6 0;
#X connect 2 0 5 0;
#X connect 3 0 10 0;
#X connect 4 0 1 1;
#X connect 7 0 2 1;
#X connect 10 0 1 0;
#X restore 265 260 pd quantize;
#X obj 454 72 r glide;
#X obj 443 9 r scale;
#X obj 166 8 r quantize_tog;
#X connect 0 0 12 0;
#X connect 1 1 2 0;
#X connect 1 1 0 0;
#X connect 2 0 13 0;
#X connect 3 0 17 0;
#X connect 4 0 27 1;
#X connect 5 0 3 0;
#X connect 8 0 10 0;
#X connect 10 0 19 0;
#X connect 11 0 3 0;
#X connect 14 0 25 0;
#X connect 15 0 0 1;
#X connect 16 0 2 1;
#X connect 17 0 21 0;
#X connect 18 0 1 1;
#X connect 19 0 18 0;
#X connect 20 0 15 0;
#X connect 20 0 22 0;
#X connect 21 0 20 0;
#X connect 22 0 16 0;
#X connect 23 0 1 0;
#X connect 24 0 23 0;
#X connect 25 0 24 0;
#X connect 26 0 31 0;
#X connect 27 0 14 0;
#X connect 27 1 39 0;
#X connect 28 0 29 0;
#X connect 29 0 27 0;
#X connect 30 0 28 0;
#X connect 31 0 28 0;
#X connect 33 0 35 0;
#X connect 35 0 39 1;
#X connect 36 0 38 0;
#X connect 38 0 39 2;
#X connect 39 0 24 0;
#X connect 40 0 38 0;
#X connect 41 0 35 0;
#X connect 42 0 28 0;
#X coords 0 600 1 599 200 60 0;
